<?xml version="1.0" encoding="UTF-8"?>
<svg width="120px" height="120px" viewBox="0 0 120 120" version="1.1" xmlns="http://www.w3.org/2000/svg" xmlns:xlink="http://www.w3.org/1999/xlink">
    <title>duotone/jv_rms</title>
    <g id="duotone/jv_rms" stroke="none" stroke-width="1" fill="none" fill-rule="evenodd">
        <path d="M92,12 L92.0006018,57.2995496 C91.130619,56.3492004 89.8818203,55.75 88.5,55.75 C85.8872069,55.75 83.75,57.8922934 83.75,60.5 C83.75,63.078053 85.921947,65.25 88.5,65.25 C89.8700002,65.25 91.125318,64.6366522 92.0009581,63.6749518 L92,73.583 L75.740753,73.583896 C75.6787673,73.5864714 75.6056773,73.5934424 75.5238494,73.6053419 L75.3948499,73.6269544 C75.1198915,73.6787884 74.8718961,73.7634117 74.654574,73.8797625 C74.0511382,74.2028324 73.75,74.7251336 73.75,75.6181073 C73.75,76.52987 74.0499647,77.0685408 74.6402435,77.4001298 C74.8531519,77.5197311 75.0970603,77.6076262 75.36916,77.6628227 C75.4036346,77.6698161 75.4372689,77.676057 75.4693257,77.6815409 L75.4693257,77.6815409 L75.6368397,77.7053249 L75.7512651,77.7129824 L80.681655,77.7129862 L80.6808746,100.457609 L80.6917146,100.637849 C80.6999007,100.718153 80.7129782,100.806223 80.7315307,100.901172 C80.7860003,101.179938 80.8726426,101.429706 80.9902261,101.647248 C81.3115899,102.241806 81.8212373,102.536076 82.6863354,102.536076 C83.8867799,102.536076 84.310543,102.055038 84.3211279,100.867695 L84.3211279,100.867695 L84.3204928,100.73576 L84.3101982,100.589138 L84.3059006,100.466569 L84.3059006,89.7980674 L92,89.798 L92,106 L68.698,106 L67.7011371,105.564508 C67.4607676,105.459504 67.226985,105.343804 67.0002888,105.218079 L67.0005908,105.168171 C66.8699513,105.111102 66.7407668,105.051323 66.6131085,104.988904 C64.2488047,103.503938 62.75,100.889538 62.75,98 L62.75,83.25 L27,83.25 L27,12 L92,12 Z M59.1632627,19 L53.5275413,30.6360513 L41,32.4921047 L50.0631134,41.4965343 L47.9166072,54.2562565 L59.1632627,48.2296551 L70.4099181,54.2562565 L68.2624666,41.4965343 L77.3265253,32.4921047 L64.7980388,30.6360513 L59.1632627,19 Z" id="Combined-Shape" fill="#0D63BA" opacity="0.300176711"></path>
        <polygon id="Path" fill="#0D63BA" fill-rule="nonzero" points="59.1632627 26.5929595 55.7424811 33.6586949 48.0232129 34.801288 53.6111377 40.3539005 52.2986855 48.1482252 59.1632627 44.4713013 66.0268945 48.1482252 64.7153876 40.3539005 70.3023671 34.801288 62.5840443 33.6586949"></polygon>
        <polygon id="Path" fill="#0D63BA" fill-rule="nonzero" points="59.25 69.25 59.25 72.75 38.25 72.75 38.25 69.25"></polygon>
        <polygon id="Path" fill="#0D63BA" fill-rule="nonzero" points="70.2961827 60.25 70.2961827 63.75 38.25 63.75 38.25 60.25"></polygon>
        <path d="M100.277778,12 C104.266501,12 107.5,16.4771525 107.5,22 L107.5,35 L95.5,35 L95.5,12 L100.277778,12 Z" id="Path" fill="#0D63BA" opacity="0.300176711"></path>
        <path d="M59.25,86.75 L59.25,98 L59.2541385,98.313562 C59.3308098,101.215985 60.46896,103.906274 62.346412,105.950366 L62.632,106.25 L20,106.25 L19.747775,106.246218 C15.3081156,106.112902 11.75,102.471972 11.75,98 L11.75,86.75 L59.25,86.75 Z" id="Shape" fill="#0D63BA" fill-rule="nonzero"></path>
        <path d="M101.439974,70.0849172 C104.889241,69.9508677 107.038833,72.1078394 107.038833,75.6181073 C107.038833,77.795837 106.077885,79.529175 104.343386,80.4857763 C103.794459,80.7885178 103.199579,80.9947399 102.574111,81.1112739 C102.264715,81.168919 101.965346,81.2018714 101.664495,81.2112785 L101.664495,81.2112785 L101.550161,81.2130587 L99.722,81.212 L99.7212296,100.617929 L99.7164715,100.7627 C99.7030325,101.033588 99.6666675,101.328134 99.6072493,101.632226 C99.4871282,102.246986 99.2844496,102.831258 98.9925266,103.371347 C98.0507123,105.113804 96.3497504,106.09594 94.2174042,106.09594 C91.0356558,106.09594 89.1627345,104.034382 89.0845748,101.046817 L89.0845748,101.046817 L89.0829448,100.804815 C89.0838972,100.730392 89.0861603,100.657394 89.0905831,100.569733 L89.0905831,100.569733 L89.0969369,100.467026 L89.097,93.298 L87.805,93.298 L87.805,100.402 L87.8150549,100.550025 L87.8196755,100.685871 L87.8210577,100.88056 C87.7942926,103.909558 85.9209703,106.036076 82.6863354,106.036076 C80.5539892,106.036076 78.8530273,105.053941 77.911213,103.311483 C77.6192899,102.771394 77.4166114,102.187122 77.2964903,101.572362 C77.2364029,101.264846 77.2002872,100.969248 77.1860753,100.667594 L77.1860753,100.667594 L77.1819416,100.518732 L77.181,81.212 L75.6959039,81.2121066 L75.5504353,81.2071678 C75.2767883,81.193147 74.9797397,81.1551134 74.6733426,81.0929595 C74.0550403,80.9675343 73.4676821,80.7558733 72.9260682,80.4516218 C71.2068835,79.48587 70.25,77.767517 70.25,75.6181073 C70.25,73.4562458 71.2411217,71.7372211 73.0025908,70.7941586 C73.5456152,70.5034319 74.1317886,70.3034124 74.7464662,70.1875361 C75.0451327,70.1312328 75.3310449,70.0978992 75.6184359,70.0861096 L75.6184359,70.0861096 L75.7470706,70.0831633 Z M101.683073,73.5796361 L101.507904,73.5835972 L75.740753,73.583896 C75.6477745,73.5877591 75.5298112,73.6015121 75.3948499,73.6269544 C75.1198915,73.6787884 74.8718961,73.7634117 74.654574,73.8797625 C74.0511382,74.2028324 73.75,74.7251336 73.75,75.6181073 C73.75,76.52987 74.0499647,77.0685408 74.6402435,77.4001298 C74.8531519,77.5197311 75.0970603,77.6076262 75.36916,77.6628227 C75.4036346,77.6698161 75.4372689,77.676057 75.4693257,77.6815409 L75.4693257,77.6815409 L75.6368397,77.7053249 L75.7512651,77.7129824 L80.681655,77.7129862 L80.6808746,100.457609 L80.6917146,100.637849 C80.6999007,100.718153 80.7129782,100.806223 80.7315307,100.901172 C80.7860003,101.179938 80.8726426,101.429706 80.9902261,101.647248 C81.3115899,102.241806 81.8212373,102.536076 82.6863354,102.536076 C83.8867799,102.536076 84.310543,102.055038 84.3211279,100.867695 L84.3211279,100.867695 L84.3204928,100.73576 L84.3101982,100.589138 L84.3059006,100.466569 L84.3059006,89.7980674 L92.5978389,89.7980674 L92.5978389,100.523025 L92.5926166,100.658122 L92.5836738,100.800911 L92.5837087,100.970469 C92.6141727,102.133931 93.0339066,102.59594 94.2174042,102.59594 C95.0825022,102.59594 95.5921496,102.30167 95.9135135,101.707112 C96.031097,101.48957 96.1177393,101.239801 96.1722089,100.961035 C96.1791258,100.925636 96.1853036,100.891067 96.1907377,100.858049 L96.1907377,100.858049 L96.2143831,100.684336 L96.2220545,100.564203 L96.2220632,77.7129488 L101.577215,77.7124494 C101.674308,77.7093602 101.796686,77.6958897 101.933041,77.6704848 C102.20219,77.6203385 102.443009,77.5368557 102.653108,77.4209827 C103.237817,77.0985076 103.538833,76.5555405 103.538833,75.6181073 C103.538833,74.0613267 103.006033,73.5266973 101.507904,73.5835972 Z" id="Combined-Shape" fill="#0D63BA" fill-rule="nonzero"></path>
        <path d="M88.5,52.25 C93.0476546,52.25 96.75,55.9611569 96.75,60.5 C96.75,65.0110496 93.0110496,68.75 88.5,68.75 C83.9889504,68.75 80.25,65.0110496 80.25,60.5 C80.25,55.9611569 83.9523454,52.25 88.5,52.25 Z M88.5,55.75 C85.8872069,55.75 83.75,57.8922934 83.75,60.5 C83.75,63.078053 85.921947,65.25 88.5,65.25 C91.078053,65.25 93.25,63.078053 93.25,60.5 C93.25,57.8922934 91.1127931,55.75 88.5,55.75 Z" id="Combined-Shape" fill="#0D63BA" fill-rule="nonzero"></path>
        <path d="M101.507904,73.5835972 C103.006033,73.5266973 103.538833,74.0613267 103.538833,75.6181073 C103.538833,76.5555405 103.237817,77.0985076 102.653108,77.4209827 C102.443009,77.5368557 102.20219,77.6203385 101.933041,77.6704848 C101.796686,77.6958897 101.674308,77.7093602 101.577215,77.7124494 L96.2220632,77.7129488 L96.2220545,100.564203 L96.2143831,100.684336 L96.1907377,100.858049 C96.1853036,100.891067 96.1791258,100.925636 96.1722089,100.961035 C96.1177393,101.239801 96.031097,101.48957 95.9135135,101.707112 C95.5921496,102.30167 95.0825022,102.59594 94.2174042,102.59594 C93.0339066,102.59594 92.6141727,102.133931 92.5837087,100.970469 L92.5836738,100.800911 L92.5926166,100.658122 L92.5978389,100.523025 L92.5978389,89.7980674 L84.3059006,89.7980674 L84.3059006,100.466569 L84.3101982,100.589138 L84.3204928,100.73576 L84.3211279,100.867695 C84.310543,102.055038 83.8867799,102.536076 82.6863354,102.536076 C81.8212373,102.536076 81.3115899,102.241806 80.9902261,101.647248 C80.8726426,101.429706 80.7860003,101.179938 80.7315307,100.901172 C80.7129782,100.806223 80.6999007,100.718153 80.6917146,100.637849 L80.6808746,100.457609 L80.681655,77.7129862 L75.7512651,77.7129824 L75.6368397,77.7053249 L75.4693257,77.6815409 C75.4372689,77.676057 75.4036346,77.6698161 75.36916,77.6628227 C75.0970603,77.6076262 74.8531519,77.5197311 74.6402435,77.4001298 C74.0499647,77.0685408 73.75,76.52987 73.75,75.6181073 C73.75,74.7251336 74.0511382,74.2028324 74.654574,73.8797625 C74.8718961,73.7634117 75.1198915,73.6787884 75.3948499,73.6269544 C75.5298112,73.6015121 75.6477745,73.5877591 75.740753,73.583896 L101.507904,73.5835972 Z" id="Path-Copy" fill="#0D63BA" fill-rule="nonzero" opacity="0.303331012"></path>
        <path d="M88.5,55.75 C91.1127931,55.75 93.25,57.8922934 93.25,60.5 C93.25,63.078053 91.078053,65.25 88.5,65.25 C85.921947,65.25 83.75,63.078053 83.75,60.5 C83.75,57.8922934 85.8872069,55.75 88.5,55.75 Z" id="Path-Copy-2" fill="#0D63BA" fill-rule="nonzero" opacity="0.303331012"></path>
    </g>
</svg>