<?xml version="1.0" encoding="UTF-8"?>
<svg width="120px" height="120px" viewBox="0 0 120 120" version="1.1" xmlns="http://www.w3.org/2000/svg" xmlns:xlink="http://www.w3.org/1999/xlink">
    <title>duotone/technology copy</title>
    <g id="duotone/technology-copy" stroke="none" stroke-width="1" fill="none" fill-rule="evenodd">
        <path d="M64.4590456,28.3945146 L65.0878281,34.8614928 C65.0910483,34.8939727 65.1130137,34.9183326 65.1703114,34.9302153 C68.0384757,35.5630478 70.7691034,36.7141173 73.2141862,38.3171085 C73.234972,38.3304297 73.2588505,38.3337958 73.2818329,38.3267146 L73.3151359,38.308196 L78.3252789,34.1339098 L84.3993386,40.2939041 L80.2537836,45.3122491 C80.2264653,45.3453923 80.2238501,45.3954711 80.2474304,45.4311278 C81.8735385,47.8855131 83.0266941,50.6243834 83.6416521,53.4786291 C83.6512188,53.519782 83.6780075,53.5514469 83.714159,53.5669125 L83.7531405,53.5767297 L90.2873765,54.2077251 L90.2873765,62.9359469 L83.8255684,63.5668529 C83.782352,63.5710204 83.7442632,63.6045673 83.7353666,63.6431754 C83.090966,66.5193124 81.9364259,69.2545675 80.3271401,71.7170154 C80.3119395,71.7403283 80.3080596,71.7694703 80.3145769,71.7953182 L80.3320352,71.8304792 L84.4749,76.8504028 L78.3253747,83.0120352 L73.3150603,78.8405516 C73.2863705,78.8166779 73.2475277,78.814584 73.2174339,78.8345938 C70.7660974,80.4647292 68.0316318,81.6189539 65.1623708,82.2357194 C65.1363376,82.2414082 65.1140459,82.2586989 65.1007795,82.283219 L65.0883095,82.3248749 L64.4605322,88.8445146 L55.7407831,88.8445146 L55.1117848,82.3256883 C55.1075532,82.2817185 55.0775693,82.2479448 55.0270357,82.2370523 C52.1582865,81.5992365 49.4280818,80.4440658 46.9817501,78.8358037 C46.9611797,78.8225205 46.9370717,78.8191344 46.9151137,78.8251483 L46.8845002,78.8411568 L41.8736888,83.0130541 L35.7250027,76.8508439 L39.8701238,71.8310622 C39.8971197,71.7983669 39.8996587,71.749747 39.8752637,71.7129329 C38.2501354,69.2585644 37.0971063,66.5189194 36.4822042,63.6649315 C36.4727165,63.6241187 36.4456215,63.5922614 36.4094991,63.5766938 L36.3706854,63.5668277 L29.8373765,62.9358073 L29.8373765,54.2076974 L36.3775711,53.5762484 C36.4276931,53.5715551 36.4710481,53.533743 36.478722,53.5020238 C37.1197712,50.6279186 38.2725489,47.8922069 39.8789853,45.4296968 C39.8945696,45.4056829 39.8985451,45.3765059 39.8913098,45.3498499 L39.8720988,45.312717 L35.7265481,40.2936068 L41.8757576,34.1322933 L46.885042,38.3039091 C46.9138698,38.3278976 46.9532185,38.3300182 46.9833002,38.3100438 C49.4336387,36.6799276 52.1681688,35.525572 55.078669,34.9003068 C55.0903302,34.8980489 55.1005266,34.8903702 55.1065089,34.8807839 L55.111978,34.8654129 L55.742216,28.3945146 L64.4590456,28.3945146 Z" id="Path" fill="#0D63BA" fill-rule="nonzero" opacity="0.3" transform="translate(60.062377, 58.619515) rotate(-90.000000) translate(-60.062377, -58.619515) "></path>
        <path d="M59.558995,44.4326329 C67.6774909,44.4412268 74.2530431,51.0276742 74.2492394,59.1467418 C74.2444739,67.2654279 67.6615594,73.8445112 59.5393999,73.8445112 C51.4166673,73.8283286 44.8392802,67.2400552 44.8373789,59.1143223 C44.8507083,50.9956912 51.4402662,44.424089 59.558995,44.4326329 Z M59.5553009,47.932635 C53.4669424,47.9262278 48.5072284,52.7759482 48.3406792,58.8258558 L48.3363765,59.1195146 L48.3412195,59.4107629 C48.49832,65.4673968 53.4517528,70.3323761 59.5428864,70.3445146 C65.7293606,70.3445146 70.7456079,65.3311842 70.7492391,59.1448948 C70.7521375,52.9581244 65.7414987,47.9391834 59.5553009,47.932635 Z" id="Combined-Shape" fill="#0D63BA" fill-rule="nonzero"></path>
        <path d="M60,12.25 L60,15.75 C48.4488846,15.75 37.6893991,20.6398644 30.1025127,29.0513298 C24.0747872,35.7341771 20.4448895,44.2100766 19.8400748,53.2884881 C22.2539857,54.0647241 24,56.3284603 24,59 C24,62.3137085 21.3137085,65 18,65 C14.6862915,65 12,62.3137085 12,59 C12,56.2633163 13.8322037,53.9545667 16.3368706,53.2334916 C16.9574455,43.3002245 20.9129101,34.0140464 27.5035301,26.7071264 C35.6204656,17.7080036 47.0883075,12.4145168 59.4212683,12.2537702 L60,12.25 Z" id="Combined-Shape" fill="#0D63BA" fill-rule="nonzero" opacity="0.3"></path>
        <path d="M23.4739962,79.1789181 C27.0863826,87.8243109 33.6251419,94.8755328 42.1150426,99.0346573 L42.6070024,99.2713889 L41.1115671,102.435828 C31.7631819,98.0180127 24.5235792,90.4119056 20.4666756,81.0501909 L20.2445733,80.5282985 L23.4739962,79.1789181 Z" id="Path" fill="#0D63BA" fill-rule="nonzero" transform="translate(31.425788, 90.807373) rotate(-2.000000) translate(-31.425788, -90.807373) "></path>
        <path d="M102,53 C105.313708,53 108,55.6862915 108,59 C108,61.7174011 106.193525,64.0128772 103.715972,64.7510303 C103.316969,74.8457263 99.4810264,84.3259314 92.9218654,91.8142873 C84.7912377,101.096729 73.1364617,106.582118 60.5801526,106.74621 L60,106.75 L60,103.25 C71.7576166,103.25 82.6910749,98.1824791 90.2890408,89.5081575 C96.2990997,82.6466916 99.8220103,73.9741812 100.213456,64.7288783 C97.7720415,63.9688733 96,61.6913779 96,59 C96,55.6862915 98.6862915,53 102,53 Z" id="Combined-Shape" fill="#0D63BA" fill-rule="nonzero" opacity="0.297905332"></path>
        <path d="M78.4046539,14.2750658 C87.6636425,18.5038135 94.8854013,25.727393 99.0415356,34.6423694 L99.2735075,35.1487883 L96.0817598,36.585015 C92.3856366,28.3710658 85.8696845,21.6797299 77.4576061,17.6945891 L76.9506134,17.4587376 L78.4046539,14.2750658 Z" id="Path" fill="#0D63BA" fill-rule="nonzero" transform="translate(88.112060, 25.430040) rotate(-2.000000) translate(-88.112060, -25.430040) "></path>
        <path d="M102,56.5 C100.619288,56.5 99.5,57.6192881 99.5,59 C99.5,60.3807119 100.619288,61.5 102,61.5 C103.380712,61.5 104.5,60.3807119 104.5,59 C104.5,57.6192881 103.380712,56.5 102,56.5 Z" id="Path" fill="#0D63BA" fill-rule="nonzero"></path>
        <path d="M18,56.5 C16.6192881,56.5 15.5,57.6192881 15.5,59 C15.5,60.3807119 16.6192881,61.5 18,61.5 C19.3807119,61.5 20.5,60.3807119 20.5,59 C20.5,57.6192881 19.3807119,56.5 18,56.5 Z" id="Path" fill="#0D63BA" fill-rule="nonzero"></path>
    </g>
</svg>