<?xml version="1.0" encoding="UTF-8"?>
<svg width="120px" height="120px" viewBox="0 0 120 120" version="1.1" xmlns="http://www.w3.org/2000/svg" xmlns:xlink="http://www.w3.org/1999/xlink">
    <title>duotone/real_time</title>
    <g id="duotone/real_time" stroke="none" stroke-width="1" fill="none" fill-rule="evenodd">
        <path d="M115.605228,46 L115.605228,96 L6.03642382,96 L6.03642382,46 L115.605228,46 Z M79.5535055,51.25 C70.5999309,51.25 63.25,58.600862 63.25,67.5535055 C63.25,76.4887246 70.5650404,83.75 79.5535055,83.75 C88.4858009,83.75 95.75,76.4858009 95.75,67.5535055 C95.75,58.5650404 88.4887246,51.25 79.5535055,51.25 Z M24.0005553,79.7450821 L23.9994447,83.2450821 L54.9994447,83.2549179 L55.0005553,79.7549181 L24.0005553,79.7450821 Z M79.5535055,54.75 C86.5499246,54.75 92.25,60.4922807 92.25,67.5535055 C92.25,74.5528043 86.5528043,80.25 79.5535055,80.25 C72.4922807,80.25 66.75,74.5499246 66.75,67.5535055 C66.75,60.5337594 72.5330268,54.75 79.5535055,54.75 Z M80.0743243,59 L76.5743243,59 L76.5743243,69.7105809 L82.753671,74.3946166 L84.8679507,71.6053834 L80.074,67.971 L80.0743243,59 Z M24.0005553,70.7647542 L23.9994447,74.2647542 L54.9994447,74.2745901 L55.0005553,70.7745902 L24.0005553,70.7647542 Z M24.0007172,62.2549182 L23.9992828,65.7549182 L47.9992828,65.7647539 L48.0007172,62.2647542 L24.0007172,62.2549182 Z M24.0007172,53.7450821 L23.9992828,57.2450821 L47.9992828,57.2549179 L48.0007172,53.7549182 L24.0007172,53.7450821 Z M43.3902955,32.9301155 C44.3781649,31.9182284 46.1782825,31.9182284 47.1881046,32.9301155 C47.6930156,33.4360591 47.9784001,34.117983 47.9784001,34.843902 C47.9784001,35.5698211 47.6930156,36.251745 47.1881046,36.7576886 C46.6831935,37.2636321 45.9807086,37.5496002 45.2782237,37.5496002 C44.5757388,37.5496002 43.8732539,37.2636321 43.3902955,36.7576886 C42.8853845,36.251745 42.6,35.5698211 42.6,34.843902 C42.6,34.117983 42.8853845,33.4360591 43.3902955,32.9301155 Z M34.4114918,32.9301155 C35.4034099,31.9182284 37.210905,31.9182284 38.2248657,32.9301155 C38.731846,33.4360591 39.0184001,34.117983 39.0184001,34.843902 C39.0184001,35.5698211 38.731846,36.251745 38.2248657,36.7576886 C37.7178853,37.2636321 37.0125214,37.5496002 36.3071574,37.5496002 C35.6017935,37.5496002 34.9184722,37.2636321 34.4114918,36.7576886 C33.9265541,36.251745 33.64,35.5698211 33.64,34.843902 C33.64,34.117983 33.9045115,33.4360591 34.4114918,32.9301155 Z M25.4602955,32.9301155 C26.4481649,31.9182284 28.2482825,31.9182284 29.2581046,32.9301155 C29.7630156,33.4360591 30.0484001,34.117983 30.0484001,34.843902 C30.0484001,35.5698211 29.7630156,36.251745 29.2581046,36.7576886 C28.7531935,37.2636321 28.0507086,37.5496002 27.3482237,37.5496002 C26.6237862,37.5496002 25.9432539,37.2636321 25.4602955,36.7576886 C24.9553845,36.251745 24.67,35.5698211 24.67,34.843902 C24.67,34.117983 24.9553845,33.4360591 25.4602955,32.9301155 Z M65.2522951,33.2400004 L95.7522951,33.2600004 L95.75,36.7599996 L65.25,36.7400004 L65.2522951,33.2400004 Z" id="Shape" fill="#0D63BA"></path>
        <path d="M24.0005553,79.7450821 L55.0005553,79.7549181 L54.9994447,83.2549179 L23.9994447,83.2450821 L24.0005553,79.7450821 Z M24.0005553,70.7647542 L55.0005553,70.7745902 L54.9994447,74.2745901 L23.9994447,74.2647542 L24.0005553,70.7647542 Z M24.0007172,62.2549182 L48.0007172,62.2647542 L47.9992828,65.7647539 L23.9992828,65.7549182 L24.0007172,62.2549182 Z M24.0007172,53.7450821 L48.0007172,53.7549182 L47.9992828,57.2549179 L23.9992828,57.2450821 L24.0007172,53.7450821 Z M115.605228,23 L115.605228,43 L6.03642382,43 L6.03642382,23 L115.605228,23 Z M43.389496,32.9301155 C42.884585,33.4360591 42.5992005,34.117983 42.5992005,34.843902 C42.5992005,35.5698211 42.884585,36.251745 43.389496,36.7576886 C43.8724544,37.2636321 44.5749393,37.5496002 45.2774242,37.5496002 C45.9799091,37.5496002 46.682394,37.2636321 47.1873051,36.7576886 C47.6922161,36.251745 47.9776006,35.5698211 47.9776006,34.843902 C47.9776006,34.117983 47.6922161,33.4360591 47.1873051,32.9301155 C46.177483,31.9182284 44.3773654,31.9182284 43.389496,32.9301155 Z M34.4066921,32.9301155 C33.8997118,33.4360591 33.6352003,34.117983 33.6352003,34.843902 C33.6352003,35.5698211 33.9217544,36.251745 34.4066921,36.7576886 C34.9136725,37.2636321 35.5969938,37.5496002 36.3023577,37.5496002 C37.0077217,37.5496002 37.7130856,37.2636321 38.220066,36.7576886 C38.7270463,36.251745 39.0136004,35.5698211 39.0136004,34.843902 C39.0136004,34.117983 38.7270463,33.4360591 38.220066,32.9301155 C37.2061053,31.9182284 35.3986102,31.9182284 34.4066921,32.9301155 Z M25.4614957,32.9301155 C24.9565846,33.4360591 24.6712001,34.117983 24.6712001,34.843902 C24.6712001,35.5698211 24.9565846,36.251745 25.4614957,36.7576886 C25.944454,37.2636321 26.6249863,37.5496002 27.3494239,37.5496002 C28.0519088,37.5496002 28.7543937,37.2636321 29.2593047,36.7576886 C29.7642158,36.251745 30.0496002,35.5698211 30.0496002,34.843902 C30.0496002,34.117983 29.7642158,33.4360591 29.2593047,32.9301155 C28.2494827,31.9182284 26.4493651,31.9182284 25.4614957,32.9301155 Z M65.2511475,33.2400004 L65.2488525,36.7400004 L95.7488525,36.7599996 L95.7511475,33.2600004 L65.2511475,33.2400004 Z" id="Shape" fill="#0D63BA" opacity="0.29640997"></path>
    </g>
</svg>